<svg xmlns="http://www.w3.org/2000/svg" width="149.815" height="170.174" viewBox="0 0 149.815 170.174">
  <path id="logo_footer" data-name="logo footer" d="M243.588,204.763a34.479,34.479,0,1,0-1.5,50.135h0q.3-.271.6-.549l.187-.174.218-.208c.164-.158.328-.317.49-.478.086-.086.169-.174.254-.261a34.321,34.321,0,0,0,7.129-10.691q.139-.329.27-.659h0q.37-.927.684-1.87h0a34.425,34.425,0,0,0-8.338-35.243Zm-25.4,56.726a32.347,32.347,0,0,1-31.326-31.327h31.326Zm0-33.4H204.565a12.941,12.941,0,0,1,.483-2.753h0a14.7,14.7,0,0,1,1.481-3.567h0a14.869,14.869,0,0,1,2.351-3.068h0a14.846,14.846,0,0,1,3.067-2.351h0a14.728,14.728,0,0,1,3.567-1.481h0a12.667,12.667,0,0,1,2.672-.482Zm0-15.78a14.424,14.424,0,0,0-3.208.555h0a16.8,16.8,0,0,0-4.07,1.689h0a16.926,16.926,0,0,0-3.5,2.68h0a16.937,16.937,0,0,0-2.68,3.5h0a16.786,16.786,0,0,0-1.689,4.07h0a14.833,14.833,0,0,0-.556,3.288H186.861a32.347,32.347,0,0,1,31.326-31.326Zm32.236,25.518a1.207,1.207,0,0,0-.28-.442l-.9-.9a1.21,1.21,0,1,0-1.711,1.711l.9.9a1.207,1.207,0,0,0,1.571.119q-.418,1.273-.943,2.516a32.4,32.4,0,0,1-1.845,3.687l-.763-.786a1.21,1.21,0,0,0-1.737,1.685l.917.945a1.212,1.212,0,0,0,.277.212,32.6,32.6,0,0,1-9.482,9.091l-.508-.523a1.21,1.21,0,1,0-1.736,1.685l.08.082q-1.191.625-2.436,1.154-1.428.6-2.9,1.065l-.743-.743a1.209,1.209,0,0,0-1.907,1.452,32.344,32.344,0,0,1-6.02.753v-6.956a1.209,1.209,0,0,0,1.148-2.028l-.489-.489a1.2,1.2,0,0,0-.659-.337v-8.714a1.2,1.2,0,0,0,.958-.336,1.21,1.21,0,0,0,.026-1.711l-.482-.5a1.2,1.2,0,0,0-.5-.311v-8.738a1.206,1.206,0,0,0,1.153-1.212h7.843a1.2,1.2,0,0,0,.3.536l.481.5a1.209,1.209,0,0,0,2.062-1.032h7.809a1.2,1.2,0,0,0,.35.761l.489.489a1.209,1.209,0,0,0,2-1.25h8.84A32.223,32.223,0,0,1,250.424,237.827Zm-30.162-9.738v-2.53h24.81a1.638,1.638,0,1,0,0-2.42h-24.81v-2.265h20.649a1.638,1.638,0,1,0,0-2.42H220.262v-2.264h16.506a1.637,1.637,0,1,0,0-2.42H220.262v-2.264h12.362a1.638,1.638,0,1,0,0-2.42H220.262v-2.265h8.218a1.638,1.638,0,1,0,0-2.42h-8.218v-2.265h4.026a1.638,1.638,0,1,0,0-2.42h-4.026v-2.956a32.348,32.348,0,0,1,31.327,31.326Zm-5.477-83.135a1.687,1.687,0,1,0,1.687,1.687A1.689,1.689,0,0,0,214.785,144.954Zm-5.664-9.2a1.687,1.687,0,1,0,1.687,1.687A1.689,1.689,0,0,0,209.121,135.759Zm-2.266,8.063a1.687,1.687,0,1,0,1.687,1.687A1.689,1.689,0,0,0,206.855,143.821Zm.088-11.64a1.687,1.687,0,1,0-1.687,1.687A1.689,1.689,0,0,0,206.943,132.181Zm-7.812-.365a1.687,1.687,0,1,0,1.687,1.687A1.688,1.688,0,0,0,199.131,131.816Zm3.193,6.608a1.687,1.687,0,1,0,1.687,1.687A1.688,1.688,0,0,0,202.324,138.424Zm35.649,4.065a1.687,1.687,0,1,0,1.687,1.687A1.689,1.689,0,0,0,237.973,142.489Zm-4.044-9.841a1.687,1.687,0,1,0-1.687,1.687A1.689,1.689,0,0,0,233.93,132.648Zm-17.746,3.044a1.687,1.687,0,1,0,1.687,1.687A1.689,1.689,0,0,0,216.184,135.692Zm12.127,9.262A1.687,1.687,0,1,0,230,146.641,1.689,1.689,0,0,0,228.311,144.954Zm5.4-7.463a1.687,1.687,0,1,0,1.687,1.687A1.689,1.689,0,0,0,233.709,137.491Zm7-3.665a1.687,1.687,0,1,0,1.687,1.687A1.689,1.689,0,0,0,240.706,133.826Zm-45.378,9.6a1.687,1.687,0,1,0,1.687,1.687A1.689,1.689,0,0,0,195.327,143.422Zm25.521-1.732a1.687,1.687,0,1,0,1.687,1.687A1.689,1.689,0,0,0,220.848,141.689Zm7.551-2.711a1.687,1.687,0,1,0-1.687,1.687A1.689,1.689,0,0,0,228.4,138.978Zm2.512,104.183a1.21,1.21,0,0,0,1.752-1.669l-.908-.954A1.21,1.21,0,0,0,230,242.207Zm13.992-97.74a1.687,1.687,0,1,0,1.687,1.687A1.689,1.689,0,0,0,244.9,145.421ZM238.717,239.6a1.21,1.21,0,0,0,.857-2.052l-.917-.945a1.21,1.21,0,0,0-1.737,1.685l.917.945A1.207,1.207,0,0,0,238.717,239.6Zm-3.1,5a1.21,1.21,0,1,0-1.752,1.669l.908.954a1.21,1.21,0,0,0,1.752-1.669Zm-1.676-9.38a1.21,1.21,0,1,0,1.736-1.685l-.917-.945a1.21,1.21,0,0,0-1.736,1.685Zm-1.916,16.813a1.21,1.21,0,0,0-1.736,1.685l.917.945a1.21,1.21,0,1,0,1.736-1.685Zm7.453-3.38a1.21,1.21,0,1,0-1.752,1.669l.908.954a1.21,1.21,0,1,0,1.752-1.669Zm5.116-13.39a1.21,1.21,0,1,0,1.711-1.711l-.9-.9a1.21,1.21,0,0,0-1.711,1.711Zm-2.037,5.36a1.21,1.21,0,1,0-1.736,1.685l.917.945a1.21,1.21,0,0,0,1.736-1.685Zm-18.208,14.829a1.21,1.21,0,0,0-1.711,1.711l.9.9a1.21,1.21,0,0,0,1.711-1.711Zm-1.157-20.388a1.21,1.21,0,1,0,1.752-1.669l-.908-.954a1.21,1.21,0,1,0-1.752,1.669Zm-9.814-24.164a1.037,1.037,0,1,0,2-.537l-2.848-10.628a1.037,1.037,0,0,0-2.039.268,1.049,1.049,0,0,0,.036.268Zm-8.232-8.4a1.037,1.037,0,1,0-1.8,1.037l5.5,9.532a1.037,1.037,0,1,0,1.8-1.037Zm-6.42,4.585a1.037,1.037,0,0,0-1.467,1.466l7.781,7.781a1.037,1.037,0,1,0,1.467-1.466Zm4.517,11.594-9.532-5.5a1.037,1.037,0,1,0-1.037,1.8l9.532,5.5a1.037,1.037,0,1,0,1.037-1.8Zm23.81,20.436a1.21,1.21,0,1,0,1.752-1.669l-.908-.954a1.21,1.21,0,0,0-1.752,1.669Zm-3.644,7.514a1.21,1.21,0,1,0,1.736-1.685l-.917-.945a1.21,1.21,0,1,0-1.736,1.685Zm4.717,1.386a1.21,1.21,0,1,0-1.736,1.685l.917.945a1.21,1.21,0,0,0,1.736-1.685ZM162.47,126.729a1.687,1.687,0,1,0-1.687-1.687A1.689,1.689,0,0,0,162.47,126.729Zm.6,145.11-.652,1.923h8.8v-4.139l-6.156.629A2.357,2.357,0,0,0,163.073,271.839Zm28.724,7.906c0-3.239-2.462-3.864-5.557-3.864h-6.865v.021h-.251v11.905h4.243v-3.329h4.151v3.329h4.243v-3.359c0-1.192-.574-1.678-2.39-1.817A2.667,2.667,0,0,0,191.8,279.746Zm-5.557,1.62h-2.872V279h2.843l.017,0c.769,0,1.342.208,1.342,1.13C187.57,281.1,186.943,281.366,186.24,281.366Zm9.97-1.975h3.778v8.417h4.243v-8.417h3.778v-3.483h-11.8Zm-30.011-3.48h-4.243l-3.8,11.9H162.4l1.127-3.531h5.322l1.127,3.531h4.243l-3.8-11.9Zm-1.559,4.882,1.549-4.851,1.549,4.851Zm49.187,7.015h4.243v-11.9h-4.243Zm15.788-8.767a2.767,2.767,0,0,1,2.566,1.732h3.694a6.334,6.334,0,1,0-.058,2.391h-3.793a2.766,2.766,0,1,1-2.409-4.124Zm-18.455-43.4a.289.289,0,0,0,.269.487l.855-.2a.289.289,0,0,1,.344.207l.225.848a.289.289,0,0,0,.556.01l.256-.839a.289.289,0,0,1,.352-.195l.847.229a.289.289,0,0,0,.287-.476l-.6-.641a.289.289,0,0,1,.007-.4l.622-.619a.289.289,0,0,0-.269-.487l-.855.2a.289.289,0,0,1-.344-.208l-.225-.848a.289.289,0,0,0-.556-.01l-.256.839a.289.289,0,0,1-.352.195l-.847-.229a.289.289,0,0,0-.287.476l.6.641a.289.289,0,0,1-.007.4Zm-74.806-78.112a1.731,1.731,0,1,0,1.731,1.731A1.733,1.733,0,0,0,136.355,157.531ZM246.414,275.46a6.346,6.346,0,1,0,6.351,6.346A6.349,6.349,0,0,0,246.414,275.46Zm0,9.112a2.765,2.765,0,1,1,2.767-2.765A2.766,2.766,0,0,1,246.414,284.571ZM141.747,157.531a1.731,1.731,0,1,0,1.731,1.731A1.733,1.733,0,0,0,141.747,157.531ZM167.9,248.5a34.459,34.459,0,0,0,3.243-5.941c.115-.272.228-.548.336-.822a34.277,34.277,0,0,0,2.277-9.9h0c.07-.9.105-1.811.105-2.711A34.426,34.426,0,0,0,139.4,194.672H104.5V263.58H139.4a34.578,34.578,0,0,0,8.6-1.083h0c.453-.116.917-.246,1.38-.386h0a34.357,34.357,0,0,0,6.4-2.666h0A34.617,34.617,0,0,0,167.9,248.5Zm-37.829,9.876v3.128h-23.5v-4.6h23.5Zm0-3.543h-23.5v-4.8h23.5Zm0-6.875h-23.5v-4.8h23.5Zm0-6.875h-23.5v-4.8h23.5Zm0-10.969v4.094h-23.5v-4.164h23.5Zm-17.889-2.145,4.785-16.181-5.85-3.322a1.833,1.833,0,0,1-.172-3.077,1.828,1.828,0,0,1,1.5-.3,19.106,19.106,0,0,0,11.52,0,1.829,1.829,0,0,1,1.5.3,1.833,1.833,0,0,1-.172,3.077l-5.849,3.322,4.785,16.181Zm17.889,0h-3.687l-4.492-15.19,4.418-2.509a3.907,3.907,0,0,0-2.88-7.186l-.06.017a17.045,17.045,0,0,1-10.336,0l-.061-.017a3.907,3.907,0,0,0-2.88,7.186l4.418,2.509-4.492,15.19h-3.445V196.746h23.5ZM166.607,246.7l-.067-.015-.065-.015c-.091-.021-.183-.04-.276-.057.017-.068.035-.134.055-.2.006-.021.013-.041.019-.061q.022-.07.045-.139l.023-.066c.017-.047.035-.094.054-.14l.021-.053q.039-.094.083-.186l.017-.034q.036-.075.075-.148l.033-.06c.022-.041.045-.081.069-.121l.035-.059c.027-.045.055-.089.084-.132l.025-.039q.056-.083.115-.163l.034-.044c.03-.039.06-.078.091-.116l.045-.055q.044-.053.09-.1l.045-.05q.06-.065.123-.129l.017-.017c.047-.047.1-.092.145-.137l.048-.042.106-.091.056-.046c.037-.03.074-.058.112-.087l.05-.038q.081-.059.164-.115l.028-.018q.071-.047.143-.09l.02-.012A32.346,32.346,0,0,1,166.607,246.7Zm2.72-5.469c-.068.013-.136.026-.2.041l-.132.032c-.064.016-.128.032-.191.05l-.131.038c-.063.019-.125.039-.186.059l-.127.043c-.063.023-.126.047-.188.071l-.116.046c-.069.029-.137.059-.205.09l-.091.041q-.146.069-.287.144l-.041.023q-.121.065-.238.135l-.094.059c-.059.037-.118.074-.176.113l-.1.072c-.053.037-.106.075-.158.113l-.1.079q-.076.058-.15.119l-.1.083c-.049.042-.1.085-.146.129l-.092.084c-.051.048-.1.1-.15.146l-.077.077q-.1.1-.19.206l-.025.027q-.1.12-.2.244l-.061.08c-.044.058-.089.116-.131.175-.024.033-.047.067-.07.1-.037.054-.074.108-.11.164l-.029.044c-.015-.023-.032-.046-.047-.069-.044-.067-.088-.133-.135-.2-.025-.036-.051-.071-.077-.106q-.068-.091-.138-.18c-.027-.035-.055-.069-.083-.1-.051-.062-.1-.123-.158-.183-.025-.029-.05-.058-.076-.086-.08-.087-.163-.173-.249-.257-.07-.068-.142-.134-.214-.2l-.066-.058c-.053-.046-.107-.092-.161-.136l-.071-.058q-.094-.075-.191-.146l-.04-.03q-.116-.084-.236-.163l-.065-.042q-.09-.058-.182-.113l-.08-.047q-.094-.055-.19-.105l-.064-.035q-.126-.066-.255-.126l-.056-.025q-.1-.047-.207-.09l-.086-.035c-.064-.026-.128-.05-.193-.073l-.08-.029c-.09-.031-.18-.061-.271-.088l-.026-.007q-.124-.037-.251-.068l-.087-.021q-.1-.024-.2-.044l-.089-.018-.05-.01c.008-.032.016-.064.024-.1s.012-.046.018-.069c.016-.055.032-.109.05-.163l.01-.033q.032-.1.069-.192l.022-.054c.018-.045.036-.09.056-.134l.031-.069c.018-.039.036-.077.055-.115l.036-.072c.019-.037.038-.073.058-.109l.039-.069c.021-.037.043-.073.065-.109l.039-.064c.025-.04.052-.08.079-.119l.032-.048c.038-.055.077-.108.118-.161l.024-.03c.033-.042.067-.084.1-.125l.047-.054c.028-.033.056-.065.086-.1l.054-.057c.028-.03.056-.059.085-.087l.058-.056.089-.083.058-.053c.032-.029.066-.056.1-.084l.054-.045q.068-.054.137-.105l.021-.016q.08-.059.163-.114l.054-.035.115-.072.067-.039.108-.061.072-.038.109-.055.073-.035.116-.051.07-.03c.045-.019.091-.036.137-.053l.053-.02q.1-.034.193-.064l.047-.013c.05-.015.1-.029.151-.042l.073-.018.128-.029.081-.016.126-.022.083-.013.129-.016.081-.009.143-.011.07,0c.071,0,.143-.006.215-.006h.032l.145,0h.053q.2.009.4.036l.046.007.147.023.069.013.123.025.076.018.112.028.079.023.106.032.081.027.1.035.081.031.1.038.081.034.094.042.079.038.092.046.078.041.089.049.077.045.086.053.075.048.084.057.072.05.082.061.07.053.08.065.066.055.079.07.062.056c.027.025.054.051.08.077l.056.054c.03.03.058.06.087.091l.044.046q.063.069.124.141l.036.044c.028.035.056.069.083.1l.045.061c.023.031.046.061.068.092s.031.045.046.068.041.06.06.09l.045.073c.019.03.037.06.055.091l.043.076c.017.03.034.061.05.092l.04.079c.016.031.031.062.046.094s.025.054.037.081.029.064.042.1l.034.083c.013.033.026.065.038.1s.021.056.031.085.023.067.034.1.018.057.027.086.02.069.03.1.016.058.023.087l.009.04Zm-25.289-3.268.047.013q.1.03.193.064l.053.02.137.053.071.031.115.051.075.036.108.054.074.039.106.059.069.041c.038.023.075.046.112.07l.058.037c.055.036.109.074.162.113l.028.021c.044.033.087.066.13.1l.058.048.1.081.061.055.086.08.061.059.082.084.057.061q.041.045.081.091l.051.058c.032.038.063.077.094.116l.032.039q.06.078.116.159l.037.055c.025.037.05.074.074.112l.042.068c.021.035.042.069.062.1l.041.073q.029.052.056.105l.038.075c.018.037.036.074.053.111l.033.073c.019.042.036.085.053.128.008.02.017.04.024.06q.036.094.069.191l.012.039c.017.052.033.1.048.157.007.024.013.048.019.072s.016.062.024.094l-.054.011-.093.019q-.1.02-.2.044l-.088.021q-.133.033-.264.072l-.012,0c-.091.027-.181.057-.27.088l-.083.03q-.1.035-.19.072l-.087.035q-.105.044-.209.091l-.054.024q-.128.06-.254.126l-.068.037q-.093.05-.186.1l-.082.048c-.061.036-.121.074-.181.112l-.066.042q-.12.079-.236.163l-.044.033q-.095.07-.188.143l-.072.059c-.054.044-.108.089-.16.135l-.067.058c-.072.065-.144.131-.214.2-.086.084-.169.17-.249.257-.026.028-.05.057-.076.085-.054.061-.108.122-.159.185l-.082.1q-.071.09-.139.182c-.026.035-.052.07-.077.106-.047.066-.091.132-.135.2-.016.024-.033.047-.048.07-.016-.024-.033-.048-.049-.072-.044-.066-.088-.132-.134-.2-.026-.036-.052-.072-.079-.108q-.067-.091-.137-.179l-.084-.1c-.051-.062-.1-.122-.157-.182-.026-.029-.051-.059-.078-.087-.081-.087-.163-.173-.249-.257-.07-.068-.142-.134-.214-.2l-.067-.058q-.079-.069-.16-.135l-.073-.059q-.092-.073-.185-.142l-.046-.035q-.116-.084-.236-.163l-.065-.042c-.06-.038-.12-.076-.181-.113l-.082-.048q-.091-.052-.183-.1l-.071-.038q-.126-.065-.254-.126l-.049-.022q-.106-.048-.213-.093l-.088-.035c-.062-.025-.125-.048-.188-.071l-.086-.031q-.124-.043-.25-.081l-.022-.007c-.09-.027-.182-.051-.274-.074l-.088-.021c-.065-.015-.131-.03-.2-.043l-.1-.019-.058-.011c.008-.032.016-.063.024-.095s.012-.047.019-.07c.016-.055.033-.11.05-.164l.01-.033q.032-.1.069-.193l.022-.054c.018-.045.037-.09.056-.135l.031-.068c.018-.039.036-.079.055-.117l.036-.07c.019-.038.039-.075.059-.112l.038-.068c.022-.038.044-.075.067-.113l.037-.06c.027-.042.055-.084.083-.125l.028-.042c.039-.055.078-.109.119-.163l.02-.026c.034-.044.069-.087.105-.13l.044-.05c.029-.034.059-.067.089-.1l.051-.054q.044-.046.089-.091l.054-.053c.031-.03.062-.059.094-.087l.054-.049c.035-.03.07-.06.106-.09l.047-.039c.052-.041.1-.082.158-.121h0q.082-.059.166-.115l.05-.032c.04-.026.079-.051.12-.075l.064-.037.112-.063.069-.036.113-.057.07-.033.122-.054.065-.028c.049-.02.1-.039.148-.057l.042-.016q.1-.034.195-.064l.047-.013c.05-.015.1-.029.151-.042l.072-.017.131-.03.08-.016.128-.022.082-.012.132-.016.079-.009.148-.011.065,0c.072,0,.143-.005.216-.005h.021c.072,0,.144,0,.215.006l.069,0,.144.011.08.009.13.016.083.013.126.022.081.016.129.03.073.017C143.938,237.931,143.988,237.945,144.038,237.96Zm-.111-2.154a4.523,4.523,0,0,1,8.779,0,6.552,6.552,0,0,0-3.425,1.772,6.634,6.634,0,0,0-.964,1.187,6.64,6.64,0,0,0-.964-1.187A6.553,6.553,0,0,0,143.927,235.805Zm-5.787,1.769a6.635,6.635,0,0,0-.967,1.191,6.631,6.631,0,0,0-.961-1.184,6.555,6.555,0,0,0-3.421-1.774,4.523,4.523,0,0,1,8.779,0A6.553,6.553,0,0,0,138.139,237.574Zm-.959,5.6a4.493,4.493,0,0,1,3.154,1.283q.115.112.22.23a4.5,4.5,0,0,1,1.015,1.92,6.541,6.541,0,0,0-3.061,1.437q-.189.16-.368.334a6.642,6.642,0,0,0-.967,1.191,6.633,6.633,0,0,0-.961-1.184,6.555,6.555,0,0,0-3.421-1.774,4.526,4.526,0,0,1,4.39-3.436Zm1.2,8.742c.006-.023.012-.045.018-.068q.025-.089.054-.177l.006-.019c.022-.065.045-.13.07-.193.007-.019.015-.037.022-.056.018-.045.036-.089.056-.134l.03-.067c.018-.04.037-.079.056-.119l.035-.068q.029-.057.061-.114l.036-.065c.023-.039.046-.078.069-.116l.035-.057q.044-.069.09-.135l.021-.032q.059-.083.121-.165l.018-.023c.035-.045.071-.089.108-.133l.04-.046c.031-.035.062-.07.093-.1l.047-.05c.031-.032.062-.064.094-.1l.05-.049.1-.093.048-.043c.038-.034.077-.066.117-.1l.037-.03q.158-.127.328-.239l.042-.027c.042-.027.085-.054.129-.081l.056-.033.12-.067.062-.033.122-.061.062-.03c.044-.02.088-.04.133-.059l.054-.023q.085-.035.172-.066l.019-.007q.1-.035.2-.066l.04-.011.159-.044.066-.016.137-.031.075-.015.133-.023.077-.012.137-.017.075-.008c.051,0,.1-.008.155-.012l.059,0q.108,0,.216-.006h.022c.072,0,.143,0,.214.006l.07,0,.142.011.082.009.128.016.084.013.124.022.083.016.126.029.076.018c.048.012.1.026.144.04l.054.016q.1.03.192.064l.058.022c.044.016.088.033.132.051l.074.032.112.049.077.037.1.052.076.04.1.058.072.042c.036.022.071.044.107.067l.063.04q.078.052.153.107l.038.029c.043.032.086.064.128.1l.059.049.094.079.063.056.085.079.062.06.08.082.058.062.08.09.052.06c.031.037.061.074.09.112l.035.044q.06.078.116.159l.036.053c.025.038.051.075.075.114.014.022.028.045.042.068s.042.069.063.1l.041.073q.029.053.056.106l.038.074c.018.037.036.075.053.113l.033.072c.019.042.036.085.054.129l.024.059q.037.1.069.192l.007.022q.028.086.053.174c.006.022.012.044.018.066s.017.067.025.1l-.055.011-.091.018c-.067.014-.134.028-.2.044l-.086.021c-.09.023-.18.046-.268.073l-.008,0c-.091.027-.181.057-.271.088l-.082.03q-.1.035-.192.073l-.086.035q-.106.044-.212.092l-.051.023q-.129.06-.255.126l-.067.036c-.063.034-.125.068-.187.1l-.081.048q-.092.055-.182.113L144.7,253q-.12.079-.236.163l-.043.033q-.1.07-.188.143l-.072.058q-.081.066-.16.135l-.066.058c-.073.065-.144.131-.214.2-.086.084-.169.17-.249.257-.026.028-.05.057-.075.085-.054.061-.108.123-.16.185l-.082.1q-.072.09-.14.183l-.076.1c-.047.067-.093.134-.138.2-.015.023-.031.045-.046.068-.015-.023-.032-.046-.047-.069-.044-.068-.09-.135-.137-.2-.025-.035-.051-.07-.076-.1q-.069-.093-.14-.183l-.082-.1c-.052-.063-.106-.124-.16-.185-.025-.028-.05-.057-.075-.085-.081-.088-.163-.174-.249-.258-.07-.068-.142-.134-.214-.2l-.067-.058q-.079-.069-.16-.135l-.073-.059q-.092-.073-.186-.142l-.046-.034q-.117-.084-.236-.163l-.064-.041q-.09-.058-.182-.113l-.082-.048q-.091-.053-.184-.1l-.07-.038q-.126-.066-.255-.126l-.048-.021q-.107-.049-.215-.094l-.087-.035c-.063-.025-.126-.049-.189-.072l-.085-.031q-.125-.043-.251-.082l-.021-.006c-.091-.027-.183-.051-.275-.075l-.086-.021-.2-.044-.095-.019-.059-.012C138.362,251.985,138.37,251.952,138.379,251.919Zm5.548-5.307a4.523,4.523,0,0,1,8.739-.152c.014.05.028.1.04.152a6.553,6.553,0,0,0-3.425,1.772,6.64,6.64,0,0,0-.964,1.188,6.646,6.646,0,0,0-.964-1.188A6.553,6.553,0,0,0,143.927,246.613Zm8.777-3.836-.067-.058q-.079-.069-.16-.135l-.073-.059q-.092-.073-.187-.143l-.044-.033q-.116-.084-.236-.163l-.067-.043q-.089-.057-.179-.111l-.083-.049q-.091-.053-.184-.1l-.069-.037q-.126-.066-.254-.126l-.055-.025c-.069-.031-.138-.062-.208-.09l-.088-.035q-.094-.037-.189-.072l-.084-.03c-.089-.031-.179-.061-.27-.088l-.013,0c-.087-.026-.174-.049-.263-.071l-.088-.021q-.1-.023-.2-.044l-.093-.019-.054-.011c.008-.032.016-.063.024-.095s.012-.047.019-.07c.015-.054.032-.107.049-.16l.011-.037c.022-.064.045-.128.069-.191.007-.02.016-.039.024-.058.017-.044.035-.087.054-.13l.033-.071c.017-.038.035-.076.053-.113l.037-.073q.028-.054.057-.107l.04-.072c.02-.036.042-.071.063-.106l.041-.067c.025-.039.05-.077.076-.115l.035-.052c.038-.054.077-.108.117-.16l.028-.034c.032-.041.064-.081.1-.121l.049-.056c.027-.032.055-.063.084-.094l.056-.059.084-.086.059-.058.088-.082.06-.054.1-.083.055-.046c.044-.035.09-.07.135-.1l.023-.018q.08-.058.163-.113l.056-.036c.038-.024.076-.048.114-.071l.068-.04.108-.061.072-.038.109-.055.073-.035.116-.051.07-.03c.046-.019.092-.036.138-.053l.052-.02q.1-.034.193-.064l.046-.013c.05-.015.1-.029.152-.042l.072-.017.13-.03.08-.016.127-.022.082-.013.13-.016.08-.009.144-.011.069,0c.071,0,.143-.006.215-.006h.021c.072,0,.144,0,.215.005l.066,0,.146.011.081.009.13.016.084.013.125.022.082.016.126.028.076.018.143.04.056.016c.065.02.129.041.193.063l.051.019c.047.017.093.035.139.054l.071.03.115.051.075.036.108.054.074.039.106.06.069.04c.038.023.075.046.112.07l.057.036c.055.037.11.074.163.113l.015.011q.073.054.144.11l.053.044c.034.028.067.056.1.085l.058.052.09.083.058.056.085.087.054.058.085.1.047.054c.034.04.067.081.1.123l.026.033q.061.079.118.161l.032.047c.027.04.054.079.08.12l.039.063c.022.036.044.073.065.109l.039.07q.03.054.059.11l.036.071c.019.038.037.077.055.116l.031.069c.019.044.038.089.055.133l.022.055q.037.1.069.192l.01.033c.017.054.034.109.05.164.007.023.012.046.019.07s.016.063.024.1l-.057.011-.1.019q-.1.02-.2.043l-.088.021c-.092.023-.183.047-.274.074l-.02.007q-.127.038-.252.082l-.085.03q-.1.034-.19.072l-.086.035q-.109.045-.216.094l-.046.021c-.086.04-.171.082-.256.126l-.068.037q-.094.05-.186.1l-.081.047c-.062.037-.123.075-.183.114l-.063.04q-.12.079-.237.163l-.045.034q-.094.069-.187.143l-.073.059q-.081.066-.16.135l-.066.058c-.073.065-.144.131-.214.2-.086.084-.168.169-.249.257-.026.029-.052.058-.078.087-.054.06-.106.121-.157.182l-.084.1q-.07.089-.138.18l-.078.107c-.046.065-.09.131-.134.2-.016.024-.033.047-.049.072-.015-.024-.032-.046-.048-.07-.044-.067-.089-.134-.136-.2-.025-.036-.051-.071-.077-.106q-.068-.092-.139-.181l-.083-.1c-.051-.062-.1-.123-.159-.184l-.076-.086c-.081-.087-.163-.174-.249-.257C152.848,242.907,152.777,242.841,152.7,242.777Zm2.359-6.973a4.523,4.523,0,0,1,8.779,0,6.54,6.54,0,0,0-2.863,1.285,6.708,6.708,0,0,0-.559.489,6.636,6.636,0,0,0-.961,1.184,6.636,6.636,0,0,0-.968-1.191A6.553,6.553,0,0,0,155.063,235.8Zm15.351,2.671-.028-.037q-.062-.086-.126-.17l-.049-.064q-.089-.112-.182-.221l-.046-.051c-.049-.055-.1-.11-.149-.164l-.07-.073q-.068-.07-.138-.138l-.072-.069q-.086-.081-.174-.158l-.04-.035q-.107-.092-.219-.18l-.072-.055q-.079-.061-.16-.119l-.085-.06q-.082-.057-.165-.111l-.077-.05c-.08-.051-.161-.1-.243-.147l-.046-.025q-.1-.058-.209-.113l-.09-.045c-.059-.029-.118-.058-.177-.085l-.093-.042q-.1-.045-.2-.086l-.065-.027q-.134-.052-.271-.1l-.077-.025q-.1-.034-.206-.064l-.1-.027q-.1-.027-.2-.051l-.091-.022c-.1-.022-.193-.042-.291-.059a4.526,4.526,0,0,1,4.389-3.431c.081,0,.162,0,.243.007l.079.006c.054,0,.109.008.163.014l.092.011.148.021.094.016c.049.009.1.019.147.03l.056.013A32.231,32.231,0,0,1,170.415,238.475Zm-38.2-41.729H139.4a32.35,32.35,0,0,1,32.362,31.306H158.345v-3.958h2.035a3.853,3.853,0,0,0,3.848-3.848v-6.625a3.853,3.853,0,0,0-3.848-3.848h-2.035V207.9a2.168,2.168,0,0,0-2.165-2.165H142.825a2.168,2.168,0,0,0-2.165,2.165v1.869h-2.792a3.853,3.853,0,0,0-3.848,3.848v6.625a3.853,3.853,0,0,0,3.848,3.848h2.883v3.958h-8.534Zm11.188,25.275v-5.915a1.636,1.636,0,1,0-3.272,0v5.915h-2.266a1.776,1.776,0,0,1-1.774-1.774v-6.625a1.776,1.776,0,0,1,1.774-1.774H160.38a1.776,1.776,0,0,1,1.774,1.774v6.625a1.776,1.776,0,0,1-1.774,1.774Zm12.866,2.074v3.958h-3.1v-3.958Zm-5.174,0v3.958H148v-3.958Zm-5.173,0v3.958h-3.1v-3.958Zm-3.19-14.322V207.9a.091.091,0,0,1,.091-.091H156.18a.091.091,0,0,1,.091.091v1.869Zm-10.517,20.353h39.551c0,.091,0,.182-.008.274l-.115-.018-.126-.02c-.063-.009-.125-.016-.188-.023l-.12-.013c-.069-.007-.139-.011-.209-.016l-.1-.007c-.1,0-.208-.007-.312-.007a6.556,6.556,0,0,0-4.6,1.872c-.086.084-.168.17-.249.257l-.076.086c-.054.061-.107.122-.159.184l-.083.1q-.071.09-.139.181c-.026.035-.052.07-.077.106-.047.066-.091.132-.136.2-.015.024-.033.047-.048.07-.015-.024-.032-.046-.047-.07-.044-.068-.089-.134-.136-.2l-.077-.105q-.068-.092-.14-.182l-.082-.1c-.052-.063-.105-.124-.16-.185-.025-.028-.05-.057-.075-.085-.081-.088-.163-.174-.249-.257a6.592,6.592,0,0,0-9.2,0c-.086.083-.168.169-.249.257-.026.029-.052.058-.078.087-.054.06-.106.121-.157.183l-.084.1q-.07.089-.138.18l-.078.107c-.046.065-.09.131-.134.2-.016.024-.033.048-.049.072-.015-.023-.032-.046-.047-.069-.045-.068-.09-.135-.137-.2l-.076-.1q-.069-.093-.14-.183l-.081-.1c-.052-.063-.106-.125-.16-.186-.025-.028-.049-.057-.075-.084-.081-.088-.163-.174-.249-.257a6.592,6.592,0,0,0-9.2,0c-.086.084-.169.17-.249.257l-.075.084c-.054.061-.108.123-.16.186l-.082.1q-.072.09-.14.183l-.077.105c-.047.066-.092.133-.136.2-.015.023-.032.046-.047.07-.016-.024-.033-.048-.049-.072-.044-.066-.088-.133-.134-.2l-.078-.107q-.067-.091-.138-.18l-.084-.1c-.051-.062-.1-.122-.157-.183-.026-.029-.051-.059-.078-.087-.081-.087-.163-.173-.249-.257a6.557,6.557,0,0,0-4.6-1.872q-.324,0-.644.031a6.551,6.551,0,0,0-3.959,1.841c-.071.069-.14.14-.207.212l-.062.068c-.031.034-.062.066-.092.1Zm0,7.69.047.006.069.011.14.025.062.012c.065.013.13.028.194.044l.011,0q.091.023.18.05l.061.019.13.043.065.023.135.052.049.02q.089.038.177.079l.043.021.133.067.059.032.116.066.056.033q.071.043.139.088l.025.016c.053.035.106.072.157.109l.047.035.108.083.052.042c.035.029.07.059.1.089l.043.038c.048.043.094.086.14.13l.022.022c.038.038.076.077.113.116l.043.047.089.1.042.049q.049.059.1.119l.026.033q.059.076.114.155l.029.042c.027.04.054.08.08.12l.035.056c.024.039.048.079.071.119l.03.052c.032.057.062.114.091.172l0,0c.029.057.056.115.082.174l.024.056c.019.043.036.086.054.129l.024.061q.027.07.051.141l.016.047q.031.094.058.19l.011.041c.01.038.02.076.029.115l-.05.01-.088.018q-.1.021-.2.044l-.087.021q-.126.031-.252.068l-.025.007c-.091.027-.181.057-.271.088l-.079.029q-.1.035-.194.073l-.086.035q-.1.043-.208.09l-.056.025q-.129.06-.255.126l-.064.035q-.1.051-.189.105l-.08.047q-.092.055-.181.113l-.066.042q-.119.079-.236.163l-.041.031q-.1.071-.19.145l-.072.058q-.081.066-.161.136l-.066.058c-.073.065-.144.131-.214.2s-.14.14-.207.212l-.065.071c-.03.033-.06.065-.09.1Zm0,10.807.046.006.071.011.137.024.065.013c.063.013.127.027.189.043l.019.005c.059.015.118.032.176.049l.064.02.127.042.067.024.13.05.054.022c.059.025.117.05.175.078l.046.022.129.065.062.033.112.063.06.035q.067.04.131.083l.032.021c.053.035.1.071.155.108l.05.038c.035.026.07.053.1.08l.055.045.1.085.048.041c.047.042.093.085.138.129l.025.025c.037.037.074.074.11.112l.046.049c.029.032.058.064.086.1l.045.052q.046.055.09.112l.031.039q.058.076.112.154l.03.045c.026.039.053.078.078.118l.036.058q.035.057.068.114l.032.056c.029.052.058.105.085.159l.007.013c.029.058.056.116.083.175l.025.057c.018.042.036.084.053.127l.025.064c.017.045.033.09.049.135l.018.053c.02.062.04.125.058.189l.011.041c.011.039.02.078.03.118l-.049.01-.094.019q-.1.02-.2.043l-.09.021q-.126.032-.25.068l-.026.007c-.091.027-.181.057-.271.088l-.079.029q-.1.035-.194.073l-.085.035q-.105.044-.209.091l-.054.024q-.129.06-.256.126l-.063.034q-.1.051-.19.106l-.08.047q-.092.055-.182.113l-.065.041q-.12.079-.236.163l-.04.03q-.1.071-.191.146l-.072.058q-.081.066-.16.135l-.067.058c-.073.065-.144.131-.214.2s-.14.14-.207.212l-.063.068c-.03.033-.062.066-.091.1Zm0,12.883v-2.072l.038.006c.059.009.118.018.177.029l.07.014q.085.017.168.038l.054.013q.108.028.214.06l.047.015c.056.018.112.037.167.057l.065.024q.081.031.16.065l.048.02q.1.045.2.094l.042.022c.052.027.1.055.155.083l.058.034q.075.044.149.091l.042.026q.092.06.181.125l.039.029c.047.035.093.07.138.107l.052.042c.045.037.089.075.133.114l.036.032q.081.074.159.152l.036.037q.06.062.118.126l.046.052q.057.065.112.133l.032.039q.068.086.132.176l.032.046q.048.069.094.14l.02.031Zm4.955-1.122q-.091-.144-.19-.283a6.6,6.6,0,0,0-4.192-2.675,4.523,4.523,0,0,1,8.779,0,6.6,6.6,0,0,0-4.4,2.962Zm2.233,1.122h-.486l.017-.027c.045-.07.09-.139.138-.206l0,0c.049-.068.1-.134.153-.2l.039-.047c.053-.064.107-.126.163-.187l.014-.015c.053-.056.107-.111.163-.164l.044-.042c.06-.056.12-.11.182-.163l.028-.023c.056-.046.113-.091.171-.135l.048-.036c.065-.048.132-.094.2-.138l.04-.025q.089-.057.181-.109l.05-.028q.106-.059.216-.112l.049-.023q.1-.045.193-.086l.048-.02q.114-.046.23-.085l.055-.018q.1-.033.208-.062l.043-.012c.08-.021.161-.04.243-.056l.059-.012c.075-.014.15-.027.225-.037l.033,0c.084-.011.169-.019.254-.026l.063,0c.082,0,.165-.008.248-.009h.039c.071,0,.141,0,.212.006l.056,0c.063,0,.125.009.188.015l.023,0c.068.007.136.017.2.027l.055.009q.086.014.172.032l.035.007q.1.021.2.047l.051.014q.081.022.16.047l.042.013q.1.031.189.066l.046.018q.077.03.153.062l.045.019c.061.027.121.055.18.085l.039.02q.074.038.147.078l.044.025c.058.033.115.067.171.1l.03.02q.072.046.142.1l.044.031c.054.039.108.079.16.12l.019.015q.071.057.139.116l.041.036c.051.045.1.09.149.137l0,0c.047.046.094.094.139.142l.018.019A32.583,32.583,0,0,1,139.4,261.506Zm12.973-4.011-.105.028c-.073.019-.146.037-.218.058-.042.012-.084.026-.125.04-.064.02-.129.04-.193.062-.044.015-.087.033-.131.049-.061.023-.121.044-.181.069l-.133.057c-.058.025-.116.05-.173.076s-.088.043-.133.065-.111.054-.166.083-.087.048-.131.072-.107.059-.16.091-.086.053-.128.079-.1.064-.154.1-.084.057-.126.086-.1.069-.148.1-.082.062-.122.093-.095.074-.141.112-.079.066-.118.1-.09.078-.135.118l-.114.107c-.043.041-.086.082-.128.124s-.074.075-.11.113-.081.086-.121.13-.07.079-.105.12-.076.09-.113.135-.067.084-.1.127-.071.093-.106.141-.064.088-.095.133c-.016.023-.033.045-.049.069l-.165.047c-.021-.032-.044-.063-.066-.1s-.062-.091-.094-.136-.07-.1-.106-.143-.066-.087-.1-.129-.075-.092-.113-.137-.069-.082-.1-.123-.08-.088-.121-.131-.072-.078-.109-.116-.085-.084-.128-.125-.075-.073-.114-.109-.09-.08-.135-.119-.078-.069-.118-.1-.094-.075-.141-.112-.081-.064-.122-.095-.1-.071-.148-.105-.083-.059-.125-.087-.1-.066-.155-.1-.085-.054-.128-.08-.107-.061-.161-.091-.086-.049-.13-.072-.112-.056-.168-.084-.087-.044-.132-.065-.117-.051-.175-.076-.088-.039-.132-.057c-.061-.025-.122-.046-.184-.069-.044-.016-.087-.034-.131-.049-.065-.022-.131-.042-.2-.062-.042-.013-.083-.027-.125-.039-.074-.021-.148-.04-.223-.058l-.106-.027q-.165-.039-.334-.069a4.521,4.521,0,0,1,7.543-2.151q.115.112.221.231a4.5,4.5,0,0,1,1.015,1.924Q152.541,257.456,152.378,257.5Zm2.224-3.451c-.026.028-.05.056-.075.085-.055.061-.108.123-.16.185l-.082.1q-.072.091-.14.183l-.076.1c-.047.066-.092.134-.137.2-.015.023-.032.046-.047.069-.014-.023-.031-.045-.046-.068-.045-.068-.09-.136-.138-.2-.025-.035-.05-.07-.076-.1q-.068-.092-.14-.183l-.082-.1c-.052-.063-.1-.124-.159-.184-.025-.029-.05-.058-.076-.086-.081-.088-.163-.174-.249-.257-.07-.068-.142-.134-.214-.2l-.067-.058q-.079-.069-.16-.135l-.072-.058q-.093-.073-.188-.143l-.044-.033q-.116-.084-.236-.163l-.065-.042q-.09-.058-.181-.113l-.081-.048c-.062-.036-.124-.07-.186-.1l-.068-.037c-.084-.044-.169-.086-.255-.126l-.052-.023q-.1-.048-.211-.092l-.087-.035q-.095-.037-.191-.072l-.083-.03c-.09-.031-.18-.061-.271-.088l-.009,0c-.089-.026-.178-.05-.268-.073l-.087-.021q-.1-.024-.2-.044l-.092-.018-.055-.011c.008-.033.016-.066.025-.1s.012-.046.018-.069q.024-.085.052-.169l.009-.028c.021-.065.045-.128.069-.192l.025-.061c.017-.043.034-.085.053-.127l.033-.072c.017-.038.035-.075.053-.112l.038-.074q.028-.054.057-.106l.04-.073c.02-.036.042-.071.063-.106l.041-.067c.025-.039.051-.077.077-.115l.034-.051q.057-.081.117-.159l.033-.041c.03-.038.061-.077.092-.114l.051-.058.082-.092.057-.06.082-.084.06-.059.086-.08.061-.055c.032-.028.064-.055.1-.082l.057-.047c.044-.035.089-.069.134-.1l.025-.019c.053-.039.107-.076.161-.112l.06-.038.11-.069.07-.041.1-.059.075-.039.107-.053.076-.036.113-.05.072-.031c.044-.018.09-.035.135-.052l.055-.021q.1-.034.192-.064l.052-.015c.049-.014.1-.028.146-.041l.075-.018.127-.029.082-.016.125-.022.084-.013.129-.016.081-.009.143-.011.07,0c.071,0,.143-.005.215-.006h.022q.109,0,.216.006l.06,0c.051,0,.1.007.153.011l.076.008.135.017.079.012.131.023.077.015.134.03.069.017c.052.013.1.028.154.042l.045.013q.1.031.2.065l.026.01q.083.03.165.063l.058.025.129.057.065.031.119.06.064.034.118.066.059.034c.043.026.084.052.126.079l.045.029q.169.112.327.239l.038.032c.039.032.077.064.115.1l.049.044c.034.03.067.061.1.092l.05.049.093.1.048.05c.032.034.063.069.093.1l.04.046c.037.044.073.088.108.133l.018.023q.062.081.121.164l.021.032q.046.067.09.135l.035.056c.024.039.047.077.07.117l.036.065c.021.038.041.076.061.115l.034.068c.019.039.038.079.056.119l.03.066c.02.045.038.09.056.135l.022.054c.024.064.048.128.07.194l.005.017q.029.089.055.179c.006.022.012.045.018.067s.017.066.026.1l-.059.012-.1.019q-.1.02-.2.044l-.087.021c-.092.023-.183.047-.274.074l-.023.007c-.084.025-.167.052-.249.081l-.086.031q-.095.034-.188.071l-.088.035q-.107.045-.213.093l-.049.022q-.128.06-.254.126l-.071.038c-.061.033-.123.067-.183.1l-.082.048q-.091.055-.181.112l-.065.042c-.079.053-.158.107-.236.163l-.046.035q-.094.069-.185.141l-.073.059q-.081.066-.16.135l-.067.058c-.073.065-.144.131-.214.2C154.765,253.87,154.682,253.956,154.6,254.044Zm.533,3.392-.071-.013a4.5,4.5,0,0,1,.911-1.8,4.573,4.573,0,0,1,.324-.351,4.494,4.494,0,0,1,3.154-1.283c.087,0,.174,0,.261.008l.036,0q.124.008.247.024l.043.005.054.008A32.464,32.464,0,0,1,155.134,257.436Zm4.327-7.864a6.638,6.638,0,0,0-.968-1.191,6.551,6.551,0,0,0-3.43-1.77,4.522,4.522,0,0,1,8.779,0,6.555,6.555,0,0,0-3.421,1.774A6.638,6.638,0,0,0,159.461,249.572Zm2.461,2.822-.017-.006q-.134-.054-.271-.1l-.059-.02c-.092-.031-.185-.061-.279-.089l-.006,0c-.1-.028-.192-.052-.289-.076l-.059-.014q-.143-.033-.286-.06l-.014,0q.012-.05.025-.1c.006-.023.012-.046.018-.069.017-.059.035-.117.053-.174l.007-.022c.021-.064.045-.128.069-.191.008-.021.017-.041.025-.062.017-.042.034-.084.052-.126l.033-.073c.017-.037.035-.075.053-.112l.038-.074c.018-.036.037-.071.057-.106l.04-.072c.021-.036.042-.071.063-.106l.041-.066c.025-.039.051-.078.077-.117l.034-.05q.057-.081.117-.159l.033-.042c.03-.038.06-.076.092-.113l.05-.058.082-.092.056-.06.083-.085.059-.058.088-.082.06-.054.1-.083.055-.045q.069-.056.141-.109l.017-.013c.053-.039.107-.077.162-.113l.058-.037.112-.07.068-.04.107-.06.073-.038.109-.055.074-.035.116-.051.07-.03c.046-.019.092-.036.139-.054l.051-.019c.064-.023.128-.044.193-.064l.049-.014c.049-.015.1-.029.148-.042l.073-.018.129-.029.081-.016.126-.022.083-.013.13-.016.081-.009.143-.011.07,0c.071,0,.143-.006.214-.006h.039l.073,0c.049,0,.1,0,.146,0h.014A32.635,32.635,0,0,1,161.922,252.394Zm-18.258,27h3.778v8.417h4.243v-8.417h3.779v-3.483h-11.8Zm13.391-64.921a1.74,1.74,0,1,0,1.741,1.74A1.74,1.74,0,0,0,157.055,214.47Zm-9.713,0a1.74,1.74,0,1,0,1.741,1.74A1.741,1.741,0,0,0,147.342,214.47Zm4.856,0a1.74,1.74,0,1,0,1.741,1.74A1.74,1.74,0,0,0,152.2,214.47Zm-17.233,72.06-3.224-10.6h-7.589v11.879H128.4V277.77l3.053,10.038h7.76V275.929h-4.243ZM105.592,187.7h25.571a1.037,1.037,0,0,0,1.037-1.037V163.57l7.048,11.146,3.472,5.491,4.508,7.13a1.037,1.037,0,0,0,.877.483h24.588a1.037,1.037,0,0,0,1.037-1.037V119.015a1.037,1.037,0,0,0-1.037-1.037H147.105a1.037,1.037,0,0,0-1.037,1.037v22.846l-13.722-22.847a1.037,1.037,0,0,0-.889-.5H105.581a1.056,1.056,0,0,0-.122.008l-.02,0a1.023,1.023,0,0,0-.11.022l-.017,0-.008,0a1.031,1.031,0,0,0-.106.038l-.023.01a1.054,1.054,0,0,0-.109.055l0,0a.98.98,0,0,0-.1.068l-.016.012a1.041,1.041,0,0,0-.089.08l-.016.017a1.034,1.034,0,0,0-.08.093l-.005.007a1.014,1.014,0,0,0-.066.1l-.007.01,0,.006a1.068,1.068,0,0,0-.052.111l-.008.022a1.033,1.033,0,0,0-.036.117l0,.013a1.067,1.067,0,0,0-.019.112c0,.007,0,.013,0,.02,0,.032-.005.065-.005.1v67.114A1.037,1.037,0,0,0,105.592,187.7Zm66.064-1.954h-22.98l-2.276-3.6.058.023.068.027.141.053.056.02q.1.034.2.064l.043.012.158.044.072.018.134.031.074.016.146.028.059.011q.1.016.2.029l.055.006.153.016.076.006.136.008.077,0,.152,0h.057q.1,0,.2,0l.059,0,.15-.009.075-.006.138-.014.073-.009.161-.023.045-.007q.1-.017.2-.038l.057-.013.148-.034.07-.018.138-.038.066-.02q.084-.026.168-.054l.031-.01c.066-.023.13-.047.195-.073l.055-.023.139-.059.066-.03.132-.063.06-.03q.086-.044.17-.09l.015-.008c.061-.034.121-.07.18-.107l.052-.033c.042-.027.084-.055.126-.083l.06-.041c.041-.028.08-.058.12-.087l.053-.039c.056-.043.111-.087.165-.133q.052-.044.106-.085a3.226,3.226,0,0,1,1.941-.617,3.188,3.188,0,0,1,2.048.7,5.37,5.37,0,0,0,6.77,0,3.336,3.336,0,0,1,4.1,0c.073.061.147.119.223.176l.059.043c.072.052.145.1.219.15l.016.01c.079.051.16.1.242.144l.063.035c.074.04.15.079.226.115l.029.014c.085.04.171.077.258.112l.065.026c.077.03.154.058.232.084l.039.014c.089.029.179.055.269.08l.065.017c.079.02.158.039.237.055l.047.01q.138.028.278.048l.062.008c.08.011.16.02.241.028l.053.005q.141.012.283.016h.059q.121,0,.243,0h.058q.142,0,.283-.016l.054-.005q.121-.011.241-.028l.062-.008c.093-.014.186-.03.279-.048l.049-.011q.118-.025.236-.055l.04-.01Zm0-5.569,0,0c-.062.029-.125.056-.189.081l-.031.012q-.094.036-.191.065l-.032.01c-.066.019-.132.037-.2.053l-.019,0c-.069.015-.137.029-.207.04l-.01,0c-.07.011-.139.019-.21.026l-.03,0c-.068.006-.136.01-.2.011H170.3q-.1,0-.207,0h-.022c-.07,0-.141-.009-.211-.016h-.007c-.07-.008-.139-.018-.208-.03l-.03-.005q-.1-.018-.2-.042l-.034-.009c-.065-.017-.13-.035-.194-.056l-.025-.008c-.066-.022-.131-.045-.195-.071l0,0c-.064-.026-.127-.055-.188-.085l-.028-.014c-.059-.029-.116-.061-.173-.094l-.032-.019q-.084-.051-.165-.107l-.024-.018c-.055-.04-.11-.082-.162-.126h0a5.07,5.07,0,0,0-1.943-1.008l-.086-.024-.069-.016c-.051-.012-.1-.025-.154-.036a5.492,5.492,0,0,0-.821-.107c-.1-.006-.209-.01-.313-.01h-.028c-.115,0-.229.005-.344.013q-.113.008-.225.02a5.467,5.467,0,0,0-.553.088,5.11,5.11,0,0,0-2.236,1.08,2.9,2.9,0,0,1-.952.527,3.469,3.469,0,0,1-2.573-.156,2.779,2.779,0,0,1-.57-.371,4.922,4.922,0,0,0-.758-.526,5.367,5.367,0,0,0-2.627-.676,5.25,5.25,0,0,0-3.385,1.2,3.336,3.336,0,0,1-4.1,0c-.071-.06-.144-.117-.218-.172l-.04-.03q-.108-.079-.221-.152l-.043-.027c-.078-.05-.158-.1-.239-.144h0c-.081-.045-.164-.088-.248-.129l-.046-.022q-.122-.058-.248-.11l-.049-.02c-.087-.035-.175-.068-.265-.1h0c-.089-.03-.179-.057-.269-.082l-.05-.014q-.133-.036-.269-.065l-.022-.005-2.7-4.265.019-.01c.061-.031.123-.061.186-.088l.027-.011q.094-.039.19-.073l.017-.006c.067-.023.134-.042.2-.061l.038-.01q.1-.026.2-.045l.038-.007c.07-.013.141-.024.212-.032h.014c.069-.008.139-.013.21-.017l.03,0c.07,0,.14,0,.211,0h.04c.07,0,.14.005.21.011l.031,0c.071.007.141.015.212.026h.009c.071.011.142.025.212.041l.036.008q.1.024.2.054l.037.012c.067.021.133.044.2.069l.019.008q.095.037.186.081l.024.011c.062.03.122.063.182.1l.035.02c.058.035.115.071.17.109l.029.021c.057.041.113.083.167.129h0a5.25,5.25,0,0,0,3.385,1.2h0a5.25,5.25,0,0,0,3.385-1.2,3.336,3.336,0,0,1,4.1,0,4.966,4.966,0,0,0,1.167.732q.1.047.211.089a5.492,5.492,0,0,0,4.015,0,4.992,4.992,0,0,0,1.378-.821,2.729,2.729,0,0,1,.356-.253,3.364,3.364,0,0,1,3.74.253c.073.061.147.119.223.176l.059.043c.072.052.145.1.219.15l.015.01c.079.05.16.1.242.144l.063.034c.075.04.15.079.226.115l.029.014c.085.04.171.077.257.112l.065.026c.076.03.153.058.231.084l.04.014c.089.029.179.055.269.08l.066.017q.117.03.235.055l.049.011q.138.028.277.048l.065.009q.118.016.237.027l.056.005q.14.012.281.016h.061q.119,0,.239,0h.06q.141,0,.281-.016l.057-.005q.119-.011.238-.027l.064-.009q.139-.02.277-.048l.051-.011q.118-.025.234-.055l.041-.009Zm0-18.352H159.8V153.5h11.859Zm0-10.4H159.523v-3.856h12.133Zm-23.517,3.588h0v-9.882h0V120.052h23.514v25.71H158.618a.905.905,0,0,0-.905.905v5.76a.908.908,0,0,0,.01.131v9.266h-6.949a2.638,2.638,0,0,1-2.635-2.635Zm2.635,8.881h20.882v9.692l0,0c-.062.029-.125.055-.189.08l-.032.013q-.093.035-.189.065l-.035.01c-.065.019-.131.037-.2.052l-.023,0c-.067.015-.134.028-.2.039l-.014,0c-.068.011-.138.019-.207.025l-.033,0c-.067.006-.134.009-.2.011h-.036c-.068,0-.136,0-.2,0h-.025c-.069,0-.138-.008-.207-.016h-.009c-.069-.008-.138-.018-.207-.03l-.032-.005c-.066-.012-.131-.026-.2-.042l-.035-.009c-.065-.017-.13-.035-.193-.056l-.026-.009c-.066-.022-.131-.045-.195-.071l0,0c-.064-.026-.127-.055-.189-.085l-.028-.013c-.059-.03-.117-.061-.173-.095l-.031-.019c-.056-.034-.112-.07-.165-.108l-.023-.017c-.056-.04-.111-.082-.164-.127a5.022,5.022,0,0,0-1.592-.9c-.116-.04-.233-.075-.351-.107l-.086-.024a5.483,5.483,0,0,0-1.072-.161c-.095,0-.19-.008-.284-.008h-.019c-.127,0-.254.006-.381.015l-.141.012a5.187,5.187,0,0,0-2.844,1.174,3.335,3.335,0,0,1-4.1,0,4.887,4.887,0,0,0-.468-.347q-.091-.06-.184-.115-.127-.076-.258-.144l-.051-.027c-.11-.056-.223-.106-.337-.154s-.233-.093-.352-.132-.227-.072-.342-.1l-.037-.01c-.046-.012-.092-.022-.138-.032l-.085-.02c-.115-.024-.231-.044-.348-.06s-.219-.029-.33-.038l-.069,0c-.129-.009-.258-.015-.387-.015s-.265.006-.4.015l-.059,0a5.2,5.2,0,0,0-2.929,1.182,3.336,3.336,0,0,1-4.1,0c-.056-.047-.113-.093-.171-.137l-.057-.042c-.04-.03-.079-.059-.12-.087l-.069-.047-.113-.074-.074-.046-.113-.067-.076-.043-.118-.063-.075-.039-.129-.061-.067-.031q-.083-.037-.167-.071l-.032-.013q-.1-.04-.2-.075l-.058-.019-.147-.048-.077-.022-.131-.036-.083-.021-.128-.03-.085-.018-.13-.024-.084-.015-.137-.02-.077-.01-.161-.017-.054-.005q-.108-.009-.216-.013h-.048l-.168,0h-.077l-.139,0-.085,0-.132.008-.087.007-.131.013-.085.01-.134.02-.08.013-.149.028-.063.012c-.07.015-.141.031-.21.049l-.023.006q-.093.024-.185.051l-.069.022-.137.044-.079.028-.125.047-.081.032-.121.051-.08.036-.121.058-.075.037c-.043.022-.085.045-.128.068l-.064.035-.015.008-8.309-13.141a1.043,1.043,0,0,0-.066-.123l-2.1-3.315-1.055-1.667h17.176v4.753A4.714,4.714,0,0,0,150.774,163.9Zm-23.2-11.536-1.489-2.353-1.435-2.269h5.524v4.622Zm4.674,0v-4.622h5.959v4.622Zm13.82-4.622v4.622h-5.787v-4.622Zm-15.2-27.154,15.063,25.08H123.34l-1.873-2.961L118.6,138.17l-4.84-7.652-6.284-9.933Zm-24.242,2.543,4.255,6.728-.04.006-.12.017-.061.011-.112.02-.064.013-.109.024-.064.015-.108.028-.062.017-.111.033-.056.017-.121.041-.044.015q-.166.059-.326.13l-.037.017-.121.056-.053.026-.1.052-.058.031-.094.052-.06.035-.089.054-.06.038-.086.057-.058.04-.087.062-.053.039-.092.072-.044.035q-.067.055-.132.112c-.049.044-.1.085-.154.125l-.046.033c-.042.03-.084.059-.127.086l-.042.027c-.056.034-.114.067-.173.1l-.033.016q-.074.037-.151.069l-.054.022q-.079.032-.159.059l-.031.011c-.064.021-.129.039-.2.055l-.048.011q-.079.018-.159.032l-.054.009c-.068.011-.137.02-.206.026Zm0,10.649.11-.008.083-.006.152-.017.065-.007q.108-.014.214-.033l.044-.009c.056-.01.112-.021.168-.033l.079-.019.131-.032.087-.025.119-.035.09-.029.114-.039.09-.034.11-.043.089-.038.108-.048.087-.041.106-.053.085-.045.1-.058.081-.047.1-.065.077-.049.105-.073.07-.049c.039-.028.076-.057.114-.087l.056-.043q.083-.067.163-.138c.045-.04.091-.078.139-.114l.047-.034c.033-.024.066-.048.1-.07l.058-.037c.031-.02.063-.039.1-.058l.064-.035.1-.049.067-.031.1-.043.069-.027.1-.037.067-.022.115-.032.061-.016c.047-.011.1-.021.143-.03l.036-.007q.091-.016.182-.027l.048,0c.045,0,.09-.009.135-.011l.069,0,.117,0,.075,0,.111,0,.077.006.11.012.077.01.112.019.074.014.029.007,3.611,5.71-.076-.024-.045-.015q-.076-.027-.15-.058l-.022-.01c-.042-.018-.084-.037-.124-.058l-.049-.025-.094-.05-.053-.031-.086-.053-.051-.034c-.029-.02-.058-.041-.086-.062l-.043-.032c-.04-.031-.079-.063-.117-.1l-.005,0a4.849,4.849,0,0,0-2.373-1.13,5.22,5.22,0,0,0-.909-.079,4.938,4.938,0,0,0-3.281,1.209c-.049.044-.1.085-.154.125l-.046.033q-.062.045-.127.086l-.043.027c-.056.034-.114.067-.172.1l-.034.016q-.074.037-.149.069l-.055.023q-.077.031-.156.058l-.035.012c-.064.02-.128.038-.194.055l-.051.012q-.076.018-.154.031l-.057.01c-.068.01-.135.019-.2.025h0Zm0,6.1.112-.008.081-.006c.052,0,.1-.011.155-.017l.061-.007q.108-.014.215-.033l.038-.007c.058-.011.117-.022.174-.035l.076-.018.134-.033.085-.024.122-.035.088-.029.116-.04.089-.033.112-.044.088-.037.109-.048.087-.041.106-.053.084-.044.1-.059.081-.047.1-.065.076-.049c.036-.024.071-.048.106-.073l.069-.049c.039-.028.076-.057.114-.086l.056-.043q.083-.067.163-.138a2.517,2.517,0,0,1,.2-.161,3.045,3.045,0,0,1,2.6-.393c.083.025.164.053.244.086a2.64,2.64,0,0,1,.766.469c.069.061.14.119.213.176l.07.052c.05.038.1.075.153.111l.086.057c.049.032.1.063.149.094l.091.054c.052.03.105.058.158.086l.087.045c.064.032.13.062.2.092l.056.025q.127.055.257.1l.072.025c.064.022.128.044.193.063l.1.028q.086.025.173.046l.1.025c.058.013.117.025.175.036l.1.019c.065.011.13.02.2.028l.084.011q.14.016.28.024h.041c.08,0,.161.006.241.006h.1c.063,0,.126,0,.189-.006l.107-.007.085-.006,1.895,3-.034.024q-.076.053-.149.109l-.067.05c-.069.054-.137.11-.2.169l-.009.008a3,3,0,0,1-3.816,0,5.057,5.057,0,0,0-6.563,0c-.049.044-.1.085-.154.125l-.046.034q-.062.045-.127.086l-.043.027q-.084.051-.172.1l-.035.017q-.073.036-.148.068l-.056.023q-.077.031-.155.057l-.035.012c-.064.02-.128.038-.193.054l-.052.012c-.051.012-.1.022-.154.031l-.058.01c-.067.01-.135.019-.2.025h0Zm0,6.1c.155-.008.31-.024.463-.046l.07-.011q.1-.015.195-.035l.064-.013c.083-.017.165-.036.247-.058l.035-.01c.07-.019.14-.04.209-.062l.07-.023q.095-.032.188-.067l.053-.02q.116-.046.23-.1l.052-.024q.09-.042.177-.087l.066-.035q.094-.05.185-.1l.034-.02q.106-.065.209-.135l.055-.038q.078-.055.154-.113l.057-.044c.066-.052.13-.1.193-.16a3,3,0,0,1,3.817,0,4.67,4.67,0,0,0,.525.4,5.006,5.006,0,0,0,2.756.808h0a4.984,4.984,0,0,0,2.937-.933q.178-.13.344-.276l.008-.007c.06-.053.123-.1.187-.15l0,0,2.213,3.5-.029,0-.134-.01-.1-.007c-.055,0-.11,0-.165,0h-.089c-.072,0-.143,0-.214.005l-.093.006-.145.011-.1.011-.136.017-.1.016-.134.023-.1.02-.136.031-.1.024c-.049.013-.1.027-.146.041l-.084.024c-.066.021-.132.043-.2.066l-.029.01c-.074.027-.148.056-.221.087l-.074.033c-.049.021-.1.043-.145.066l-.085.042c-.044.022-.087.044-.131.068l-.087.048-.125.074-.084.053c-.042.027-.083.054-.124.083l-.078.054c-.045.032-.088.065-.131.1l-.065.049c-.064.051-.127.1-.189.158l-.006.006a3,3,0,0,1-3.816,0,4.726,4.726,0,0,0-1.1-.725,5.075,5.075,0,0,0-2.18-.484h0a5.006,5.006,0,0,0-2.756.808,4.666,4.666,0,0,0-.525.4c-.049.044-.1.085-.154.125l-.046.034q-.062.045-.127.086l-.043.027c-.056.034-.113.067-.172.1l-.035.017q-.073.036-.149.069l-.055.023c-.052.021-.1.04-.157.058l-.034.012c-.064.02-.129.039-.194.055l-.05.011q-.078.018-.157.032l-.055.009c-.068.011-.137.02-.206.026Zm0,6.1c.067,0,.133-.009.2-.014l.019,0c.081-.008.161-.018.241-.029l.08-.012q.091-.014.182-.032l.075-.015c.081-.017.161-.036.24-.057l.049-.014q.1-.027.193-.057l.079-.026c.06-.02.118-.041.177-.063l.062-.023q.114-.045.226-.1l.058-.027q.086-.04.171-.084l.07-.037c.061-.033.121-.067.181-.1l.038-.022c.071-.043.14-.088.208-.134l.056-.039q.078-.054.153-.112l.058-.044c.065-.052.13-.1.193-.16a3,3,0,0,1,3.817,0,5.056,5.056,0,0,0,6.565,0l.006-.006a2.667,2.667,0,0,1,.885-.513c.041-.014.082-.028.123-.04a3.1,3.1,0,0,1,2.271.189,2.588,2.588,0,0,1,.532.359l.034.03c.057.05.116.1.176.145l.054.042q.069.053.141.1l.05.036q.082.057.167.11l3.013,4.765c-.057.006-.113.011-.17.014l-.048,0q-.082,0-.164,0h-.043q-.1,0-.2-.012l-.044,0q-.081-.009-.161-.022l-.046-.007c-.064-.011-.127-.025-.19-.04l-.037-.01c-.053-.013-.105-.028-.157-.045l-.047-.015c-.061-.02-.122-.042-.181-.067l-.028-.012c-.052-.022-.1-.045-.152-.07l-.045-.023c-.057-.029-.114-.061-.168-.094l-.016-.01c-.05-.031-.1-.064-.147-.1l-.041-.03c-.052-.039-.1-.079-.151-.121h0l-.034-.03q-.086-.075-.175-.146l-.055-.042c-.042-.032-.083-.065-.126-.1l-.064-.044c-.04-.028-.081-.056-.122-.083l-.077-.048c-.038-.024-.076-.048-.114-.071l-.084-.046c-.037-.021-.074-.042-.112-.062l-.092-.045c-.036-.018-.072-.037-.108-.054l-.1-.042-.108-.048-.106-.041-.1-.039-.111-.037-.1-.034-.113-.033-.1-.029c-.039-.01-.079-.019-.119-.029l-.1-.023-.12-.024-.1-.019-.124-.019-.094-.014-.125-.013-.094-.01-.125-.008-.1-.006-.126,0-.092,0h0l-.133,0-.089,0c-.045,0-.089.005-.133.009l-.087.006-.137.015-.083.009c-.046.006-.092.014-.137.021l-.082.012-.136.027-.081.016c-.046.01-.093.022-.139.034l-.076.019c-.048.013-.095.027-.142.041l-.071.021c-.047.015-.094.032-.141.048l-.069.024c-.046.017-.092.036-.138.054l-.069.027c-.044.019-.089.039-.133.059l-.071.032c-.046.022-.092.045-.138.069l-.062.031c-.045.024-.089.049-.133.074l-.063.035c-.044.026-.088.054-.132.082l-.059.037c-.043.028-.085.058-.127.088l-.059.041c-.049.036-.1.073-.146.111l-.035.026q-.089.071-.175.147l-.009.008a2.886,2.886,0,0,1-1.908.685,2.944,2.944,0,0,1-1.706-.525,2.562,2.562,0,0,1-.2-.161,5.057,5.057,0,0,0-6.563,0c-.049.044-.1.085-.154.125l-.046.034q-.062.045-.127.086l-.043.027q-.084.051-.172.1l-.035.017q-.073.036-.149.069l-.055.023q-.077.031-.156.057l-.035.012c-.064.02-.128.038-.193.055l-.051.012c-.051.012-.1.022-.155.031l-.057.01c-.068.011-.136.02-.2.025h0Zm0,6.1c.069,0,.138-.009.207-.015h0c.084-.008.168-.018.251-.03l.075-.012q.094-.015.187-.033l.07-.014c.082-.017.163-.036.243-.057l.044-.012q.1-.027.2-.059l.076-.025q.091-.031.181-.065l.059-.022q.115-.045.228-.1l.055-.026q.088-.041.174-.085l.068-.036q.093-.05.184-.1l.035-.02q.106-.065.209-.135l.055-.038q.079-.055.155-.114l.056-.043c.066-.052.131-.1.193-.16a2.747,2.747,0,0,1,1.215-.607q.066-.015.134-.027l.043-.008a3.016,3.016,0,0,1,2.223.482,2.48,2.48,0,0,1,.2.161,4.643,4.643,0,0,0,.525.4,5.007,5.007,0,0,0,2.756.808h0a5.1,5.1,0,0,0,1.978-.394,4.739,4.739,0,0,0,1.3-.816l.009-.008a3,3,0,0,1,3.811-.005l.034.029c.05.044.1.087.153.128l.045.035q.062.048.125.095l.038.028q.079.057.161.11l.042.026.13.08.053.031c.053.031.106.06.16.089l.021.011c.054.028.109.055.165.082l.058.027.134.059.051.022q.088.036.177.068l.053.019.136.046.063.02c.055.017.111.033.166.048l.036.009c.057.015.114.029.172.041l.065.014.14.027.057.01q.094.016.188.028l.055.007.145.016.065.006q.089.007.179.011h.026c.062,0,.125,0,.187,0h.05q.135,0,.271-.008l.041,0q.137-.009.273-.025l.038,0c.092-.012.184-.026.275-.042l.034-.007q.139-.026.276-.06l.03-.008c.083-.021.165-.044.247-.069l1.478,2.337v.5l-.007,0c-.086.042-.171.087-.254.133l-.08.047q-.089.052-.175.108l-.086.057q-.085.058-.167.119l-.074.055c-.078.06-.154.122-.228.188l-.008.007h0a2.669,2.669,0,0,1-.885.513c-.04.014-.081.028-.123.04a3.118,3.118,0,0,1-2.156-.133c-.039-.018-.078-.036-.116-.056q-.115-.058-.223-.128a2.518,2.518,0,0,1-.308-.231l-.034-.029q-.163-.143-.336-.268l-.02-.015c-.036-.026-.073-.05-.11-.075l-.077-.052-.081-.05c-.037-.023-.073-.046-.111-.068l-.061-.034c-.045-.025-.089-.051-.135-.075l-.046-.023c-.051-.026-.1-.052-.154-.076l-.042-.019c-.054-.024-.107-.049-.162-.071l-.037-.015c-.056-.023-.113-.045-.17-.066l-.038-.013c-.057-.02-.114-.04-.172-.058l-.044-.013c-.056-.017-.112-.034-.169-.049l-.048-.012c-.056-.014-.111-.028-.167-.04l-.054-.011c-.054-.011-.108-.022-.163-.032l-.061-.009c-.052-.008-.1-.017-.157-.024l-.067-.007c-.051-.006-.1-.012-.153-.016l-.072,0-.149-.009h-.074c-.047,0-.094,0-.142,0h0l-.082,0-.139,0-.081.005-.14.009-.08.009c-.047,0-.093.009-.14.015l-.084.013-.135.021-.091.018-.127.025-.093.023-.122.03-.1.029-.114.033-.1.035-.108.037-.1.04-.106.041-.1.045-.1.045c-.035.016-.069.034-.1.052l-.1.048c-.034.018-.067.037-.1.056l-.095.053c-.032.019-.063.039-.094.059s-.065.039-.1.06l-.089.061c-.032.022-.065.044-.1.067l-.078.059c-.035.026-.069.052-.1.079q-.089.071-.175.147l-.009.008a3,3,0,0,1-3.816,0,5.057,5.057,0,0,0-6.563,0c-.049.044-.1.085-.154.125l-.046.033q-.063.045-.128.087l-.042.027c-.056.034-.114.067-.173.1l-.033.016q-.074.037-.151.07l-.053.022q-.079.032-.16.059l-.031.011c-.064.021-.129.039-.2.055l-.049.011q-.078.018-.158.032l-.055.009c-.068.01-.136.02-.205.025h0Zm0,6.1c.155-.008.309-.024.462-.046l.073-.011c.064-.01.127-.021.19-.034l.068-.013c.082-.017.163-.036.244-.057l.04-.011q.1-.028.2-.06l.074-.024q.093-.031.184-.065l.057-.021q.115-.046.228-.1l.054-.025c.059-.028.117-.056.175-.086l.068-.036c.062-.033.123-.068.183-.1l.036-.021c.071-.043.14-.088.208-.134l.055-.039q.078-.055.153-.112l.058-.044c.065-.052.13-.1.193-.16a3,3,0,0,1,3.817,0,5.056,5.056,0,0,0,6.562,0l.009-.008a3,3,0,0,1,3.811-.005l.034.03q.084.073.171.143l.062.047c.038.029.075.058.114.086l.077.053c.035.024.069.049.1.072l.084.053.1.063.089.051.1.056.093.047.1.05.1.044.1.045.1.04.1.04.1.036.1.035.1.032.1.03.1.027.106.026.1.023.107.021.1.019.108.016.1.014.11.012.1.01.112.007.1.006.114,0,.083,0h.018l.119,0,.1,0,.132-.009.083-.006q.1-.009.2-.022l.053-.007c.058-.008.116-.016.173-.026l.08-.015.132-.026.089-.021.121-.029.093-.026.115-.033.094-.031.111-.038.095-.036.107-.042.095-.04.1-.046.094-.045.1-.051.093-.049.1-.055.091-.054.1-.06.089-.058.095-.065.086-.061.033-.024v3.586l-.007,0c-.086.042-.171.087-.254.133l-.08.047c-.059.035-.118.071-.176.108l-.085.057c-.057.039-.113.079-.168.12l-.073.054c-.078.06-.154.122-.228.188l-.008.007h0a3,3,0,0,1-3.811.005l-.034-.029q-.086-.076-.175-.147L125,167.42c-.052-.041-.1-.081-.158-.12l-.041-.028c-.048-.034-.1-.068-.146-.1l-.04-.025c-.05-.032-.1-.063-.151-.093l-.03-.017c-.055-.031-.11-.063-.166-.092l-.03-.015c-.056-.029-.113-.057-.17-.084l-.029-.013c-.058-.027-.116-.053-.175-.077l-.032-.012c-.058-.024-.116-.047-.175-.068l-.038-.013c-.057-.02-.114-.04-.172-.058l-.045-.013c-.056-.017-.111-.033-.168-.048l-.055-.013c-.053-.013-.106-.027-.16-.038l-.063-.012c-.051-.011-.1-.021-.154-.03l-.068-.01c-.05-.008-.1-.016-.151-.023l-.077-.008-.142-.015-.084-.005c-.045,0-.091-.007-.136-.009l-.086,0-.13,0h0l-.094,0-.127,0-.094.006c-.042,0-.085,0-.127.008l-.1.01-.124.014-.1.015-.117.018-.109.021-.108.022-.115.028-.1.024-.12.035-.093.027-.125.042-.086.029c-.043.016-.086.033-.129.05l-.078.03c-.043.018-.085.037-.127.056l-.077.034c-.044.02-.086.043-.129.064l-.071.035c-.041.022-.082.045-.123.069l-.073.041c-.04.023-.079.049-.118.073l-.073.045c-.04.026-.079.054-.119.082l-.068.046c-.037.027-.073.056-.11.084l-.071.054q-.089.071-.175.147l-.009.008a3,3,0,0,1-3.816,0,5.057,5.057,0,0,0-6.563,0c-.05.044-.1.085-.154.125l-.045.033q-.063.045-.128.087l-.041.026c-.056.034-.114.067-.173.1l-.031.015q-.076.038-.154.071l-.051.021q-.081.032-.164.06l-.028.01q-.1.031-.2.055l-.045.01q-.08.018-.162.033l-.051.009c-.069.011-.138.02-.207.026Zm0,6.1c.155-.008.309-.024.462-.046l.072-.011c.064-.01.128-.021.192-.034l.066-.013c.082-.017.164-.036.245-.058l.038-.011q.1-.028.206-.061l.072-.024c.063-.021.124-.043.186-.066l.055-.02q.116-.046.229-.1l.053-.025q.089-.042.176-.087l.067-.035c.062-.034.124-.068.185-.1l.034-.02c.071-.043.14-.088.209-.135l.055-.039q.078-.055.154-.113l.057-.044c.066-.052.13-.1.193-.16a3,3,0,0,1,3.817,0,4.892,4.892,0,0,0,2.823,1.189q.227.02.459.02a4.938,4.938,0,0,0,3.281-1.209l.009-.008a3,3,0,0,1,3.811-.005l.034.029q.084.074.171.143l.062.048c.038.029.075.058.114.086l.077.053c.035.024.069.049.1.072l.084.053.1.063.089.051.1.056.093.048.1.05.1.044.1.045.1.04.1.04.1.036.1.035.1.032.1.03.1.028.106.025.1.023.107.021.1.019.108.016.1.014.11.012.1.01.112.007.1.006.114,0,.083,0h.018l.119,0,.1,0,.132-.009.083-.006q.1-.009.2-.022l.053-.008c.058-.008.116-.016.173-.026l.08-.015.132-.026.089-.021.121-.029.093-.026.115-.033.094-.031.111-.038.095-.035.107-.042.095-.04.1-.046.094-.045.1-.051.093-.049.1-.055.091-.054.1-.06.089-.058.095-.065.086-.061.033-.024v3.586l-.007,0c-.086.042-.171.086-.254.133l-.08.047c-.059.035-.118.07-.175.108l-.086.057q-.085.058-.167.119l-.074.055c-.078.06-.154.122-.228.187l-.008.007h0a2.637,2.637,0,0,1-.764.467c-.08.032-.161.06-.243.085a3.116,3.116,0,0,1-2.156-.133q-.059-.027-.116-.056-.114-.059-.223-.128a2.549,2.549,0,0,1-.309-.232l-.033-.029c-.109-.1-.221-.184-.336-.268l-.02-.015c-.036-.026-.073-.05-.11-.075l-.077-.053-.081-.05c-.037-.023-.073-.046-.111-.068l-.064-.035c-.044-.025-.088-.05-.132-.073l-.052-.026c-.049-.025-.1-.05-.148-.074l-.043-.019c-.053-.024-.107-.048-.16-.07l-.044-.017c-.054-.022-.109-.043-.163-.063l-.044-.015c-.055-.019-.11-.038-.166-.056l-.051-.015c-.054-.016-.107-.032-.162-.047l-.059-.014c-.052-.013-.1-.026-.156-.038l-.064-.013c-.051-.01-.1-.021-.152-.03l-.071-.011c-.049-.008-.1-.016-.148-.022l-.077-.008c-.047-.006-.095-.011-.142-.015l-.084-.005-.136-.009-.086,0-.13,0h0l-.094,0-.127,0-.094.006-.127.008-.1.01-.124.014-.1.016-.117.018-.109.021-.108.021-.115.028-.1.024-.12.035-.093.027-.125.042-.086.029c-.043.016-.086.033-.129.05l-.078.03c-.043.018-.085.037-.127.056l-.077.034c-.044.02-.086.043-.129.064l-.071.035c-.041.022-.082.045-.123.069l-.073.041c-.04.024-.079.049-.118.073l-.073.046c-.04.026-.079.054-.119.082l-.068.047c-.037.027-.073.056-.11.084l-.071.054q-.089.071-.175.147l-.009.008a3,3,0,0,1-3.816,0,5.057,5.057,0,0,0-6.563,0c-.049.044-.1.085-.154.125l-.046.033q-.062.045-.128.086l-.042.027q-.084.052-.173.1l-.033.016q-.074.037-.151.07l-.053.022q-.079.032-.16.059l-.031.011c-.064.021-.129.039-.2.055l-.048.011q-.079.018-.159.032l-.054.009c-.068.011-.137.02-.206.026Zm0,6.1q.1-.006.2-.015h.009c.083-.008.165-.018.247-.03l.077-.012q.093-.015.185-.033l.072-.014c.081-.017.162-.036.242-.057l.046-.013q.1-.027.2-.058l.077-.025q.09-.03.179-.064l.06-.023q.115-.045.227-.1l.057-.027q.087-.04.172-.084l.07-.037q.092-.049.181-.1l.037-.022c.071-.043.14-.088.208-.134l.056-.039q.078-.054.153-.112l.058-.044c.065-.052.13-.1.193-.16a3,3,0,0,1,3.817,0,5.056,5.056,0,0,0,6.562,0l.009-.008a3,3,0,0,1,3.811,0l.033.029.02.017c.049.043.1.085.15.125l.065.049c.037.029.074.057.112.085l.075.052c.035.025.07.049.106.073l.082.051.1.065.086.049.1.058.089.045.106.053.091.042.107.047.094.038.108.042.1.034.109.037.1.03.111.032.1.026.112.027.1.022.114.022.1.017.116.018.1.013.118.013.1.009.121.008.094.005.125,0,.074,0h.016l.134,0,.082,0c.051,0,.1-.006.153-.01l.063,0q.215-.019.429-.056l.065-.012.147-.029.08-.019.13-.032.087-.024.121-.035.09-.03.115-.039.092-.034.11-.043.093-.039.106-.047.093-.044.1-.051.092-.049.1-.056.091-.053.1-.06.088-.058.095-.065.086-.062.033-.024v3.586l-.01.005c-.085.041-.169.085-.251.131l-.081.047c-.059.035-.118.07-.175.108l-.086.057c-.057.039-.113.079-.168.12l-.074.055c-.078.06-.154.122-.228.188l-.008.007h0a3,3,0,0,1-3.811,0l-.033-.029c-.109-.1-.221-.184-.336-.268l-.02-.015c-.036-.026-.073-.05-.11-.075l-.077-.053-.081-.05c-.037-.023-.073-.046-.111-.068l-.061-.034c-.045-.025-.089-.051-.135-.075l-.046-.023c-.051-.026-.1-.052-.154-.076l-.042-.019c-.054-.025-.107-.049-.162-.071l-.037-.014c-.056-.023-.113-.045-.17-.066l-.038-.013c-.057-.02-.114-.04-.172-.058l-.044-.013c-.056-.017-.112-.034-.169-.049l-.048-.012c-.056-.014-.111-.028-.167-.04l-.054-.011c-.054-.011-.108-.022-.163-.032l-.061-.009c-.052-.008-.1-.017-.157-.024l-.067-.007c-.051-.006-.1-.012-.153-.016l-.072,0c-.049,0-.1-.007-.149-.009l-.074,0c-.047,0-.094,0-.142,0h0l-.082,0-.139,0-.081.005c-.047,0-.093.005-.14.009l-.08.009c-.047,0-.093.009-.14.015l-.084.013-.135.021-.091.018-.127.025-.093.023-.122.03-.1.029-.114.033-.1.035-.108.037-.1.04-.106.041-.1.045-.1.045c-.035.016-.069.034-.1.052l-.1.048-.1.056-.095.053-.094.059c-.032.02-.065.039-.1.06l-.089.061c-.032.022-.065.044-.1.067l-.078.059c-.035.026-.069.052-.1.079q-.089.071-.175.147l-.009.008a3,3,0,0,1-3.816,0,5.057,5.057,0,0,0-6.563,0c-.049.044-.1.085-.154.125l-.046.034q-.062.045-.127.086l-.043.027c-.056.034-.114.067-.172.1l-.034.017q-.073.036-.149.069l-.055.023q-.078.031-.157.058l-.034.012c-.064.02-.128.038-.194.055l-.052.012q-.076.018-.154.031l-.058.01c-.067.01-.135.019-.2.025h0Zm0,6.1c.155-.008.31-.024.463-.046l.069-.011q.1-.015.195-.035l.064-.013c.083-.017.165-.037.247-.058l.035-.01q.1-.028.208-.061l.071-.023q.095-.032.188-.067l.054-.02q.116-.046.23-.1l.051-.024q.09-.042.178-.087l.066-.035q.094-.051.186-.1l.034-.02c.071-.043.141-.088.209-.135l.055-.039q.078-.055.154-.113l.057-.044c.066-.052.13-.1.193-.16a3,3,0,0,1,3.817,0,5.057,5.057,0,0,0,6.562,0l.009-.008a3,3,0,0,1,3.811,0l.033.029q.084.074.171.143l.058.044c.039.03.078.061.118.09l.072.05c.036.025.073.051.109.075l.08.05.106.066.085.048.106.059.088.045.106.053.092.042.106.047.094.038.108.042.1.034.109.037.1.03.11.032.1.026.111.027.1.022.112.022.1.018.113.017.1.014.115.012.1.009.118.008.1.005.12,0,.078,0h.017l.128,0,.088,0c.048,0,.1-.006.144-.009l.071,0q.107-.009.214-.023l.014,0c.067-.009.133-.019.2-.03l.072-.014.14-.028.085-.02.125-.03.09-.025.118-.034.093-.03.113-.038.094-.035.109-.042.094-.04.1-.047.094-.045.1-.051.093-.049.1-.055.091-.054.1-.06.089-.058.094-.065.086-.062.033-.024v4.032h-23.5Zm5.276,93.362h-4.243l-3.8,11.9h4.243l1.245-3.9h5.086l1.245,3.9h4.243l-3.8-11.9Zm-1.559,4.882,1.549-4.851,1.549,4.851ZM205.239,238.4a.289.289,0,0,0,.269.486l.113-.026a.289.289,0,0,1,.345.207l.03.112a.289.289,0,0,0,.556.01l.034-.11a.289.289,0,0,1,.352-.195l.111.03a.289.289,0,0,0,.287-.476l-.079-.084a.289.289,0,0,1,.008-.4l.082-.081a.289.289,0,0,0-.269-.487l-.113.026a.289.289,0,0,1-.345-.207l-.029-.112a.289.289,0,0,0-.556-.01l-.034.11a.289.289,0,0,1-.352.195l-.111-.03a.289.289,0,0,0-.287.476l.079.084a.289.289,0,0,1-.007.4ZM167.612,126.729a1.687,1.687,0,1,0-1.687-1.687A1.688,1.688,0,0,0,167.612,126.729ZM201.07,223.2l-10.628-2.848a1.037,1.037,0,0,0-1.27.733,1.052,1.052,0,0,0-.035.268,1.038,1.038,0,0,0,.769,1l10.628,2.848a1.037,1.037,0,1,0,.537-2Zm-1.348,23.96-.225-.848a.289.289,0,0,0-.556-.01l-.256.839a.289.289,0,0,1-.352.195l-.847-.229a.289.289,0,0,0-.287.476l.6.641a.289.289,0,0,1-.007.4l-.622.619a.289.289,0,0,0,.269.486l.855-.2a.289.289,0,0,1,.344.207l.225.848a.289.289,0,0,0,.556.01l.256-.839a.289.289,0,0,1,.352-.195l.847.229a.289.289,0,0,0,.287-.476l-.6-.641a.289.289,0,0,1,.007-.4l.622-.619a.289.289,0,0,0-.269-.486l-.854.2A.289.289,0,0,1,199.722,247.157Zm-32.11-115.414a1.687,1.687,0,1,0-1.687-1.687A1.688,1.688,0,0,0,167.612,131.743Zm28.18,108.1a.289.289,0,0,0,.269.486l.855-.2a.289.289,0,0,1,.345.208l.225.848a.289.289,0,0,0,.556.01l.256-.839a.289.289,0,0,1,.352-.195l.847.229a.289.289,0,0,0,.287-.476l-.6-.641a.289.289,0,0,1,.007-.4l.622-.619a.289.289,0,0,0-.269-.487l-.855.2a.289.289,0,0,1-.344-.207l-.225-.848a.289.289,0,0,0-.556-.01l-.256.839a.289.289,0,0,1-.352.195l-.847-.229a.289.289,0,0,0-.287.476l.6.641a.289.289,0,0,1-.008.4Zm-28.18-103.013a1.687,1.687,0,1,0-1.687-1.687A1.688,1.688,0,0,0,167.612,136.827Zm23.138,35.689a34.406,34.406,0,0,0,2.679,3.432q.692.78,1.433,1.524.991.991,2.05,1.89.9.764,1.838,1.462a34.422,34.422,0,0,0,39.907.742q.948-.648,1.853-1.359a34.853,34.853,0,0,0,5.762-5.75q.946-1.195,1.779-2.467a34.246,34.246,0,0,0,1.9-3.268q.5-.984.938-2c.028-.066.058-.13.086-.2a34.492,34.492,0,0,0-18.335-45.158q-1.182-.5-2.39-.908-1.3-.438-2.621-.77a34.795,34.795,0,0,0-16.146-.158q-1.331.306-2.636.719-1.535.485-3.03,1.117a34.444,34.444,0,0,0-15.063,51.153Zm3.627,1.357a32.17,32.17,0,0,1-3.656-5.384,6.133,6.133,0,0,0,3.242.9,6.014,6.014,0,0,0,3.633-1.166,4.2,4.2,0,0,1,4.75,0,6.243,6.243,0,0,0,7.266,0,3.665,3.665,0,0,1,1.51-.651l0,0,.008-.007a4.444,4.444,0,0,1,.568-.074l-4.823,6.269.043.033a4.177,4.177,0,0,1-3.319-.637,6.243,6.243,0,0,0-7.266,0A3.814,3.814,0,0,1,194.378,173.873Zm-3.978-8.211v-11.63h1.887v12.942a3.308,3.308,0,0,1-.7-.4Zm3.961,1.384V154.031h1.887v10.45Zm7.183-6.261a1.971,1.971,0,0,1,2.99-.15l5,5.259a5.352,5.352,0,0,0-1.178.675,4.2,4.2,0,0,1-4.75,0,6.275,6.275,0,0,0-5.713-.822Zm-3.222.879v-7.632h1.887v5.134a4.084,4.084,0,0,0-.318.366Zm3.961-3.634v-4h1.887v4.057a4.02,4.02,0,0,0-1.887-.059Zm3.961,1.394v-5.392h1.887v7.378Zm3.961,4.168v-9.56h1.887V165.41h-.159Zm21.623,19.354a32.49,32.49,0,0,1-25.207,0c-.3-.126-.594-.258-.888-.393a6.059,6.059,0,0,0,3.879-1.161,4.2,4.2,0,0,1,4.749,0,6.243,6.243,0,0,0,7.266,0,4.2,4.2,0,0,1,4.75,0,6.243,6.243,0,0,0,7.265,0l.01-.008a4.019,4.019,0,0,1,2.6-.729A32.327,32.327,0,0,1,231.828,182.946Zm10.293-6.94a32.649,32.649,0,0,1-3.562,3.084,6.294,6.294,0,0,0-6.164.645l-.01.008a4.2,4.2,0,0,1-4.75,0,6.243,6.243,0,0,0-7.266,0,4.2,4.2,0,0,1-4.75,0,6.243,6.243,0,0,0-7.266,0,4.2,4.2,0,0,1-4.75,0,6.132,6.132,0,0,0-4.335-1.128,32.724,32.724,0,0,1-2.941-2.609c-.118-.118-.233-.238-.349-.357a5.541,5.541,0,0,0,1.617-.844,4.2,4.2,0,0,1,4.75,0,6.243,6.243,0,0,0,7.266,0,4.2,4.2,0,0,1,4.749,0,6.243,6.243,0,0,0,7.266,0,4.2,4.2,0,0,1,4.75,0,6.243,6.243,0,0,0,7.265,0l.01-.008a4.2,4.2,0,0,1,4.743-.005l.038.029a6.02,6.02,0,0,0,3.621,1.156l.1,0Zm2.778-3.162a5.222,5.222,0,0,0-.459.311l-.011.008a4.2,4.2,0,0,1-4.743.005l-.039-.029a6.248,6.248,0,0,0-7.253.009l-.01.008a4.2,4.2,0,0,1-4.75,0,6.243,6.243,0,0,0-7.266,0,4.2,4.2,0,0,1-4.75,0,6.2,6.2,0,0,0-4.849-1.052l8.961-11.647a1.927,1.927,0,0,1,2.724-.336l5.351,4.236a4.019,4.019,0,0,0,5.045-.063l5.647-4.706a1.938,1.938,0,0,1,2.609.13l7.3,7.437A32.152,32.152,0,0,1,244.9,172.843Zm-30.733-8.555V154.031h1.887v7.8Zm3.961-5.146v-5.111h1.887v3.8A3.965,3.965,0,0,0,218.127,159.143Zm3.961-1.427v-3.684h1.887v4.647l-.233-.184A3.981,3.981,0,0,0,222.088,157.716Zm3.961,2.6v-6.289h1.887v7.783Zm3.961,2.8v-9.092H231.9v8.357l-.374.312A1.931,1.931,0,0,1,230.011,163.123Zm3.961-2.464v-6.628h1.887v5.056Zm3.961-3.163v-3.465h1.887v3.045A4.019,4.019,0,0,0,237.933,157.5Zm3.961.208v-3.672h1.887v5.449l-1.194-1.216A3.944,3.944,0,0,0,241.894,157.7Zm3.961,3.889v-7.562h1.887v9.484Zm3.961,2.158v-9.72h1.776A32.153,32.153,0,0,1,249.816,163.751Zm-38.679-42.006a32.664,32.664,0,0,1,16.786.164,8.394,8.394,0,0,1-16.788,0C211.136,121.852,211.137,121.8,211.138,121.745Zm-21.749,18.76a32.5,32.5,0,0,1,17.233-17.233q1.044-.441,2.109-.806a10.814,10.814,0,0,0,21.585.21q.762.278,1.513.6a32.349,32.349,0,0,1,19.757,28.684h-64.72A32.115,32.115,0,0,1,189.389,140.506Zm-1.063,13.525v8.79a32.193,32.193,0,0,1-1.468-8.79Zm-20.026,4a1.687,1.687,0,1,0-1.687-1.687A1.689,1.689,0,0,0,168.3,158.034Zm-4.982,2.607a1.691,1.691,0,0,0,1.689-1.69v-2.688a1.69,1.69,0,0,0-3.379,0v2.688A1.692,1.692,0,0,0,163.318,160.641Zm-11.132-33.912a1.687,1.687,0,1,0-1.687-1.687A1.689,1.689,0,0,0,152.186,126.729Zm0,5.014a1.687,1.687,0,1,0-1.687-1.687A1.689,1.689,0,0,0,152.186,131.743Zm54.605,115.778.6.641a.289.289,0,0,1-.007.4l-.622.619a.289.289,0,0,0,.269.487l.855-.2a.289.289,0,0,1,.345.208l.225.848a.289.289,0,0,0,.556.01l.256-.839a.289.289,0,0,1,.352-.195l.847.229a.289.289,0,0,0,.287-.476l-.6-.641a.289.289,0,0,1,.007-.4l.622-.619a.289.289,0,0,0-.269-.487l-.855.2a.289.289,0,0,1-.345-.207l-.225-.848a.289.289,0,0,0-.556-.01l-.256.839a.289.289,0,0,1-.352.195l-.847-.229A.289.289,0,0,0,206.791,247.521ZM157.328,136.827a1.687,1.687,0,1,0-1.687-1.687A1.689,1.689,0,0,0,157.328,136.827Zm-5.142,3.473a1.689,1.689,0,0,0,1.687-1.687v-3.473a1.687,1.687,0,1,0-3.373,0v3.473A1.689,1.689,0,0,0,152.186,140.3Zm5.142-13.571a1.687,1.687,0,1,0-1.687-1.687A1.689,1.689,0,0,0,157.328,126.729Zm0,5.014a1.687,1.687,0,1,0-1.687-1.687A1.689,1.689,0,0,0,157.328,131.743Zm5.142,5.084a1.687,1.687,0,1,0-1.687-1.687A1.689,1.689,0,0,0,162.47,136.827Zm0-5.084a1.687,1.687,0,1,0-1.687-1.687A1.689,1.689,0,0,0,162.47,131.743Z" transform="translate(-103.864 -117.978)" fill="#fff"/>
</svg>
